<svg width="24.000000" height="24.000000" viewBox="0 0 24 24" fill="none" xmlns="http://www.w3.org/2000/svg" xmlns:xlink="http://www.w3.org/1999/xlink">
	<desc>
			Created with Pixso.
	</desc>
	<defs>
		<clipPath id="clip1_78">
			<rect id="Frame" width="24.000000" height="24.000000" fill="white" fill-opacity="0"/>
		</clipPath>
	</defs>
	<rect id="Frame" width="24.000000" height="24.000000" fill="#FFFFFF" fill-opacity="0"/>
	<g clip-path="url(#clip1_78)">
		<path id="Vector" d="M11.87 7.7C9.62 7.7 7.83 9.53 7.83 11.75C7.83 14 9.62 15.79 11.87 15.79C14.08 15.79 15.91 14 15.91 11.75C15.91 9.53 14.08 7.7 11.87 7.7ZM11.87 14.38C10.43 14.38 9.23 13.22 9.23 11.75C9.23 10.3 10.39 9.14 11.87 9.14C13.31 9.14 14.47 10.3 14.47 11.75C14.47 13.22 13.31 14.38 11.87 14.38ZM17 7.56C17 7.03 16.58 6.61 16.05 6.61C15.53 6.61 15.1 7.03 15.1 7.56C15.1 8.09 15.53 8.51 16.05 8.51C16.58 8.51 17 8.09 17 7.56ZM19.67 8.51C19.6 7.25 19.32 6.12 18.41 5.21C17.5 4.29 16.37 4.01 15.1 3.94C13.8 3.87 9.9 3.87 8.6 3.94C7.33 4.01 6.25 4.29 5.3 5.21C4.38 6.12 4.1 7.25 4.03 8.51C3.96 9.81 3.96 13.71 4.03 15.01C4.1 16.28 4.38 17.37 5.3 18.32C6.25 19.23 7.33 19.51 8.6 19.58C9.9 19.66 13.8 19.66 15.1 19.58C16.37 19.51 17.5 19.23 18.41 18.32C19.32 17.37 19.6 16.28 19.67 15.01C19.75 13.71 19.75 9.81 19.67 8.51ZM17.99 16.39C17.74 17.09 17.18 17.62 16.51 17.9C15.46 18.32 13 18.21 11.87 18.21C10.71 18.21 8.25 18.32 7.23 17.9C6.53 17.62 6 17.09 5.72 16.39C5.3 15.37 5.4 12.91 5.4 11.75C5.4 10.62 5.3 8.16 5.72 7.1C6 6.44 6.53 5.91 7.23 5.63C8.25 5.21 10.71 5.31 11.87 5.31C13 5.31 15.46 5.21 16.51 5.63C17.18 5.87 17.71 6.44 17.99 7.1C18.41 8.16 18.3 10.62 18.3 11.75C18.3 12.91 18.41 15.37 17.99 16.39Z" fill="#000000" fill-opacity="1.000000" fill-rule="nonzero"/>
	</g>
</svg>
