<svg width="24.000000" height="24.000000" viewBox="0 0 24 24" fill="none" xmlns="http://www.w3.org/2000/svg" xmlns:xlink="http://www.w3.org/1999/xlink">
	<desc>
			Created with Pixso.
	</desc>
	<defs>
		<clipPath id="clip1_87">
			<rect id="Frame" width="24.000000" height="24.000000" fill="white" fill-opacity="0"/>
		</clipPath>
	</defs>
	<rect id="Frame" width="24.000000" height="24.000000" fill="#FFFFFF" fill-opacity="0"/>
	<g clip-path="url(#clip1_87)">
		<path id="Vector" d="M7.51 18.5L7.51 7.98L4.24 7.98L4.24 18.5L7.51 18.5ZM5.86 6.58C6.91 6.58 7.76 5.7 7.76 4.64C7.76 3.62 6.91 2.78 5.86 2.78C4.84 2.78 4 3.62 4 4.64C4 5.7 4.84 6.58 5.86 6.58ZM19.71 18.5L19.75 18.5L19.75 12.73C19.75 9.92 19.11 7.74 15.81 7.74C14.23 7.74 13.17 8.62 12.71 9.42L12.68 9.42L12.68 7.98L9.55 7.98L9.55 18.5L12.82 18.5L12.82 13.29C12.82 11.92 13.07 10.62 14.75 10.62C16.44 10.62 16.48 12.17 16.48 13.4L16.48 18.5L19.71 18.5Z" fill="#000000" fill-opacity="1.000000" fill-rule="nonzero"/>
	</g>
</svg>
