<svg width="24.000000" height="24.000000" viewBox="0 0 24 24" fill="none" xmlns="http://www.w3.org/2000/svg" xmlns:xlink="http://www.w3.org/1999/xlink">
	<desc>
			Created with Pixso.
	</desc>
	<defs>
		<clipPath id="clip1_75">
			<rect id="Frame" width="24.000000" height="24.000000" fill="white" fill-opacity="0"/>
		</clipPath>
	</defs>
	<rect id="Frame" width="24.000000" height="24.000000" fill="#FFFFFF" fill-opacity="0"/>
	<g clip-path="url(#clip1_75)">
		<path id="Vector" d="M19.13 8.09C19.83 7.56 20.47 6.93 20.96 6.19C20.33 6.47 19.59 6.68 18.85 6.75C19.62 6.3 20.19 5.59 20.47 4.71C19.76 5.14 18.96 5.45 18.15 5.63C17.44 4.89 16.5 4.47 15.44 4.47C13.4 4.47 11.75 6.12 11.75 8.16C11.75 8.44 11.78 8.72 11.85 9C8.8 8.83 6.05 7.35 4.23 5.14C3.91 5.66 3.73 6.3 3.73 7C3.73 8.26 4.37 9.39 5.39 10.06C4.79 10.02 4.19 9.88 3.7 9.6L3.7 9.64C3.7 11.43 4.96 12.91 6.65 13.26C6.37 13.33 6.02 13.4 5.7 13.4C5.46 13.4 5.25 13.36 5 13.33C5.46 14.8 6.83 15.86 8.44 15.89C7.18 16.88 5.6 17.48 3.87 17.48C3.56 17.48 3.28 17.44 3 17.41C4.61 18.46 6.55 19.06 8.66 19.06C15.44 19.06 19.13 13.47 19.13 8.58C19.13 8.41 19.13 8.26 19.13 8.09Z" fill="#000000" fill-opacity="1.000000" fill-rule="nonzero"/>
	</g>
</svg>
