<svg width="24.000000" height="24.000000" viewBox="0 0 24 24" fill="none" xmlns="http://www.w3.org/2000/svg" xmlns:xlink="http://www.w3.org/1999/xlink">
	<desc>
			Created with Pixso.
	</desc>
	<defs>
		<clipPath id="clip1_84">
			<rect id="Frame" width="24.000000" height="24.000000" fill="white" fill-opacity="0"/>
		</clipPath>
	</defs>
	<rect id="Frame" width="24.000000" height="24.000000" fill="#FFFFFF" fill-opacity="0"/>
	<g clip-path="url(#clip1_84)">
		<path id="Vector" d="M20.8 7.14C20.58 6.3 19.92 5.63 19.11 5.42C17.6 5 11.62 5 11.62 5C11.62 5 5.61 5 4.1 5.42C3.29 5.63 2.62 6.3 2.41 7.14C1.99 8.62 1.99 11.78 1.99 11.78C1.99 11.78 1.99 14.91 2.41 16.42C2.62 17.26 3.29 17.9 4.1 18.11C5.61 18.5 11.62 18.5 11.62 18.5C11.62 18.5 17.6 18.5 19.11 18.11C19.92 17.9 20.58 17.26 20.8 16.42C21.22 14.91 21.22 11.78 21.22 11.78C21.22 11.78 21.22 8.62 20.8 7.14ZM9.65 14.63L9.65 8.93L14.64 11.78L9.65 14.63Z" fill="#000000" fill-opacity="1.000000" fill-rule="nonzero"/>
	</g>
</svg>
